<svg width="12" height="12" viewBox="0 0 12 12" fill="none" xmlns="http://www.w3.org/2000/svg">
<path d="M5 2C3.34315 2 2 3.34315 2 5C2 6.65685 3.34315 8 5 8C6.65685 8 8 6.65685 8 5C8 3.34315 6.65685 2 5 2ZM1 5C1 2.79086 2.79086 1 5 1C7.20914 1 9 2.79086 9 5C9 5.92436 8.68646 6.77548 8.15993 7.45282L10.8536 10.1464C11.0488 10.3417 11.0488 10.6583 10.8536 10.8536C10.6583 11.0488 10.3417 11.0488 10.1464 10.8536L7.45282 8.15993C6.77548 8.68646 5.92436 9 5 9C2.79086 9 1 7.20914 1 5Z" fill="#666666"/>
</svg>
